<svg xmlns="http://www.w3.org/2000/svg" width="2048" height="2048" viewBox="0 0 2048 2048" version="1.1">
	<path d="M 510.694 147.036 C 498.606 148.923, 488.040 157.034, 481.946 169.106 C 475.978 180.929, 474.065 190.386, 470.437 226 C 460.529 323.271, 463.533 432.526, 478.975 536.500 C 485.076 577.579, 484.470 574.050, 491.941 612 C 493.619 620.525, 495.917 631.775, 497.047 637 C 501.217 656.287, 501.259 656.729, 499.593 664.372 C 492.014 699.152, 489.658 724.250, 490.301 763.380 C 490.574 779.988, 491.430 797.871, 492.293 805 C 497.693 849.583, 507.636 889.134, 523.465 929 C 538.066 965.771, 563.219 1006.532, 591.036 1038.500 C 597.570 1046.009, 622.686 1070.476, 631.091 1077.519 C 640.020 1085.001, 667.293 1105, 668.569 1105 C 670.053 1105, 685 1115.606, 685 1116.660 C 685 1118.045, 681.765 1123.705, 674.587 1134.880 C 667.285 1146.248, 650.896 1176.094, 639.914 1198.024 C 634.461 1208.913, 630 1218.036, 630 1218.297 C 630 1218.559, 627.942 1223.212, 625.427 1228.636 C 619.082 1242.324, 618.440 1243.777, 616.026 1249.919 C 614.854 1252.900, 613.063 1257.175, 612.046 1259.419 C 601.050 1283.684, 578.143 1353.295, 568.552 1391.592 C 563.649 1411.170, 563.060 1412.565, 555.229 1423.131 C 512.572 1480.691, 484.194 1540.664, 469.880 1603.500 C 468.752 1608.450, 467.440 1614.975, 466.964 1618 C 460.473 1659.231, 459.560 1671.066, 460.367 1703.500 C 461.543 1750.746, 467.099 1780.290, 482.756 1822.535 C 492.569 1849.015, 507.165 1874.665, 525.726 1898.050 C 532.558 1906.657, 552.453 1927.137, 561.500 1934.875 C 568.080 1940.502, 591.505 1957.200, 598.212 1961.043 C 606.633 1965.869, 629.770 1977.276, 638.500 1980.906 C 660.772 1990.168, 685.835 1996.738, 715.500 2001.092 C 723.381 2002.249, 756.805 2004.012, 758.503 2003.360 C 759.523 2002.969, 759.181 2001.289, 757.014 1996.034 C 749.009 1976.621, 748.105 1959.257, 753.809 1934.500 C 754.853 1929.968, 758.815 1919.780, 759.833 1919.009 C 760.203 1918.729, 762.253 1915.800, 764.390 1912.500 C 772.405 1900.117, 789.920 1880, 792.686 1880 C 795.831 1880, 796.865 1870.093, 794.090 1866.550 C 793.638 1865.972, 793.014 1864.375, 792.704 1863 C 792.393 1861.625, 791.628 1858.700, 791.003 1856.500 C 790.378 1854.300, 789.426 1850.700, 788.888 1848.500 C 786.664 1839.417, 786.195 1837.662, 783.069 1826.750 C 778.933 1812.311, 766.636 1764.159, 761.043 1740.500 C 757.711 1726.403, 756.769 1721.947, 755.022 1712 C 754.394 1708.425, 753.475 1703.925, 752.981 1702 C 752.487 1700.075, 751.844 1696.925, 751.554 1695 C 750.972 1691.147, 749.666 1683.598, 748.050 1674.750 C 745.498 1660.777, 744.838 1656.946, 743.437 1648 C 736.705 1604.998, 733.035 1570.958, 734.366 1563.861 C 734.729 1561.929, 735.621 1559.534, 736.348 1558.539 C 737.610 1556.814, 737.766 1556.832, 739.734 1558.945 C 740.869 1560.163, 742.017 1562.136, 742.285 1563.330 C 743.942 1570.706, 752.271 1611.443, 753.053 1616 C 754.093 1622.051, 755.702 1630.317, 757.044 1636.500 C 757.522 1638.700, 758.380 1642.750, 758.951 1645.500 C 759.521 1648.250, 760.464 1652.525, 761.045 1655 C 761.626 1657.475, 762.526 1661.525, 763.045 1664 C 764.420 1670.563, 765.715 1675.962, 767 1680.500 C 768.317 1685.151, 769.741 1690.845, 771 1696.500 C 771.490 1698.700, 772.390 1702.525, 773 1705 C 773.610 1707.475, 774.489 1711.300, 774.953 1713.500 C 775.416 1715.700, 777.387 1723.575, 779.333 1731 C 781.278 1738.425, 784.923 1752.600, 787.433 1762.500 C 789.943 1772.400, 792.395 1781.625, 792.882 1783 C 793.369 1784.375, 794.322 1787.525, 795 1790 C 795.678 1792.475, 796.578 1795.625, 797 1797 C 797.422 1798.375, 798.314 1801.525, 798.981 1804 C 799.649 1806.475, 800.601 1809.281, 801.097 1810.236 C 801.594 1811.191, 802 1813.110, 802 1814.500 C 802 1815.890, 802.406 1817.809, 802.903 1818.764 C 803.399 1819.719, 804.351 1822.525, 805.019 1825 C 805.686 1827.475, 806.578 1830.625, 807 1832 C 807.422 1833.375, 808.238 1836.300, 808.812 1838.500 C 809.386 1840.700, 811.219 1847, 812.886 1852.500 C 817.184 1866.682, 818.923 1873.967, 819.635 1880.785 L 820.256 1886.726 809.878 1894.111 C 790.062 1908.213, 781.818 1918.726, 776.145 1937.134 C 771.026 1953.747, 770.050 1962.145, 772.076 1972.174 C 775.341 1988.344, 778.979 1995.863, 788 2005.091 C 797.577 2014.886, 813.653 2022.546, 828.750 2024.506 C 834.924 2025.308, 835.086 2024.905, 832.152 2016.067 C 831.136 2013.005, 829.786 2008.356, 829.152 2005.736 C 827.798 2000.137, 827.604 1974.598, 828.883 1970.399 C 829.369 1968.805, 830.351 1965.475, 831.065 1963 C 832.787 1957.030, 837.277 1948.175, 840.344 1944.702 C 841.793 1943.061, 844.246 1941.672, 846.274 1941.343 C 849.125 1940.880, 850.021 1941.192, 851.367 1943.113 C 853.428 1946.055, 853.430 1948.731, 851.376 1953.628 C 846.775 1964.594, 845.042 1973.340, 845.021 1985.701 C 845.008 1992.977, 845.561 2000.042, 846.390 2003.201 C 851.161 2021.392, 853.964 2027.149, 858.529 2028.127 C 862.989 2029.082, 890.378 2028.997, 899.500 2027.999 C 915.257 2026.276, 919 2025.711, 919 2025.054 C 919 2024.688, 917.450 2020.545, 915.556 2015.848 C 910.853 2004.184, 909.627 1996.196, 910.299 1981.598 C 910.855 1969.500, 912.213 1963.534, 916.845 1952.820 C 919.057 1947.704, 921.300 1946, 925.819 1946 C 932.125 1946, 933.432 1953.204, 929.537 1966.500 C 928.277 1970.803, 927.791 1975.893, 927.821 1984.500 C 927.868 1998.569, 929.400 2005.739, 934.708 2016.750 C 937.563 2022.674, 938.822 2023.067, 946.866 2020.550 C 949.415 2019.752, 953.525 2018.549, 956 2017.876 C 958.475 2017.203, 960.927 2016.280, 961.450 2015.826 C 961.972 2015.372, 963.013 2015, 963.762 2015 C 966.337 2015, 980.510 2007.623, 988.204 2002.279 C 1000.196 1993.948, 1008.150 1983.130, 1011.935 1970 C 1012.648 1967.525, 1013.582 1964.375, 1014.009 1963 C 1015.135 1959.378, 1016.768 1950.617, 1017.924 1942 C 1019.815 1927.909, 1020.339 1900.476, 1020.530 1805.500 C 1020.798 1672.578, 1022.613 1643, 1030.500 1643 C 1034.238 1643, 1036.430 1651.700, 1037.554 1671 C 1037.890 1676.775, 1038.628 1687.125, 1039.194 1694 C 1039.760 1700.875, 1040.577 1757.350, 1041.011 1819.500 C 1041.765 1927.482, 1042.045 1937.119, 1044.885 1952.500 C 1046.245 1959.869, 1049.506 1971.861, 1051.546 1977 C 1055.896 1987.957, 1066.590 1999.384, 1079.621 2006.999 C 1089.851 2012.977, 1109.888 2020.358, 1119.282 2021.609 L 1123.500 2022.170 1126.707 2015.335 C 1132.730 2002.497, 1133.373 1999.592, 1133.311 1985.500 C 1133.269 1976.115, 1132.760 1970.831, 1131.479 1966.500 C 1129.055 1958.301, 1128.508 1951.288, 1130.064 1948.380 C 1131.051 1946.536, 1132.166 1946, 1135.014 1946 C 1139.477 1946, 1140.857 1947.406, 1144.832 1956 C 1149.811 1966.766, 1150.307 1969.462, 1150.342 1985.983 C 1150.377 2002.394, 1150.220 2003.253, 1144.561 2017.554 L 1141.374 2025.609 1150.437 2026.930 C 1159.963 2028.318, 1197.134 2029.309, 1202.822 2028.326 C 1205.645 2027.838, 1206.496 2026.983, 1208.491 2022.626 C 1214.537 2009.424, 1217.703 1994.583, 1216.558 1984.811 C 1214.131 1964.091, 1213.941 1963.169, 1209.845 1952.247 C 1207.676 1946.463, 1207.615 1945.787, 1209.031 1943.247 C 1210.086 1941.355, 1211.506 1940.407, 1213.595 1940.201 C 1218.392 1939.727, 1221.292 1943.312, 1227.522 1957.416 C 1233.886 1971.824, 1234.864 1993.407, 1230.021 2012.581 C 1228.383 2019.068, 1227.145 2024.447, 1227.271 2024.534 C 1227.776 2024.883, 1239.746 2023.129, 1243.370 2022.175 C 1248.569 2020.807, 1259.258 2015.515, 1266.001 2010.970 C 1287.202 1996.684, 1294.026 1973.794, 1287.121 1940.128 C 1285.480 1932.131, 1277.549 1918.031, 1270.735 1911 C 1263.056 1903.076, 1255.398 1896.648, 1247.713 1891.675 C 1240.069 1886.729, 1239.306 1884.912, 1241.490 1876.850 C 1242.437 1873.357, 1243.445 1869.150, 1243.731 1867.500 C 1244.017 1865.850, 1244.564 1864.050, 1244.946 1863.500 C 1245.741 1862.354, 1245.537 1863.035, 1255.448 1828.500 C 1262.808 1802.857, 1264.225 1797.782, 1268.148 1783 C 1270.124 1775.552, 1271.184 1771.717, 1273.123 1765 C 1273.678 1763.075, 1274.574 1759.700, 1275.112 1757.500 C 1276.804 1750.590, 1277.830 1746.630, 1279 1742.500 C 1279.623 1740.300, 1280.513 1736.925, 1280.977 1735 C 1282.599 1728.272, 1285.088 1718.471, 1286.056 1715 C 1286.593 1713.075, 1288.823 1703.850, 1291.012 1694.500 C 1293.200 1685.150, 1295.473 1675.772, 1296.062 1673.660 C 1296.652 1671.548, 1297.553 1667.498, 1298.064 1664.660 C 1298.576 1661.822, 1299.451 1657.475, 1300.009 1655 C 1300.567 1652.525, 1301.471 1648.025, 1302.016 1645 C 1302.562 1641.975, 1303.437 1637.475, 1303.961 1635 C 1304.485 1632.525, 1305.422 1628.025, 1306.044 1625 C 1306.667 1621.975, 1307.610 1617.475, 1308.141 1615 C 1308.672 1612.525, 1309.508 1608.250, 1310 1605.500 C 1310.492 1602.750, 1311.372 1598.250, 1311.956 1595.500 C 1312.541 1592.750, 1313.437 1588.025, 1313.947 1585 C 1317.327 1564.959, 1319.520 1558.120, 1322.595 1558.031 C 1323.197 1558.014, 1324.491 1558.885, 1325.469 1559.966 C 1327.046 1561.708, 1327.177 1563.275, 1326.619 1573.716 C 1325.746 1590.045, 1324.245 1607.278, 1323.022 1615 C 1322.456 1618.575, 1321.568 1624.875, 1321.050 1629 C 1320.532 1633.125, 1319.631 1638.975, 1319.048 1642 C 1318.466 1645.025, 1317.568 1650.650, 1317.053 1654.500 C 1315.878 1663.293, 1314.310 1672.318, 1313.057 1677.500 C 1311.719 1683.034, 1311.152 1685.746, 1308.459 1699.500 C 1307.167 1706.100, 1304.454 1719.375, 1302.429 1729 C 1300.405 1738.625, 1298.355 1748.412, 1297.874 1750.750 C 1296.632 1756.790, 1295.284 1762.792, 1294 1768 C 1292.848 1772.673, 1291.560 1778.343, 1290.478 1783.500 C 1290.132 1785.150, 1289.467 1787.400, 1289 1788.500 C 1288.533 1789.600, 1287.872 1791.850, 1287.531 1793.500 C 1286.776 1797.149, 1285.514 1802.156, 1284 1807.500 C 1283.377 1809.700, 1282.488 1813.075, 1282.024 1815 C 1281.047 1819.061, 1269.845 1858.474, 1266.997 1867.873 C 1264.582 1875.843, 1264.722 1876.126, 1276.343 1886.732 C 1281.206 1891.172, 1285.735 1895.860, 1286.406 1897.152 C 1287.077 1898.443, 1289.184 1901.539, 1291.088 1904.032 C 1299.385 1914.893, 1307.530 1934.775, 1310.026 1950.257 C 1312.222 1963.879, 1309.702 1984.834, 1304.435 1996.743 C 1303.096 1999.771, 1302 2002.418, 1302 2002.624 C 1302 2002.831, 1307.513 2003.004, 1314.250 2003.010 C 1327.647 2003.020, 1342.333 2001.664, 1354 1999.338 C 1358.125 1998.516, 1364.200 1997.456, 1367.500 1996.982 C 1370.800 1996.509, 1376.200 1995.374, 1379.500 1994.461 C 1382.800 1993.548, 1386.625 1992.579, 1388 1992.308 C 1390.893 1991.739, 1411.534 1985.328, 1414.500 1984.077 C 1415.600 1983.613, 1419.650 1981.977, 1423.500 1980.440 C 1439.069 1974.228, 1461.676 1962.335, 1475.412 1953.132 C 1479.214 1950.584, 1484.348 1947.181, 1486.820 1945.568 L 1491.316 1942.637 1514.908 1941.883 C 1527.884 1941.469, 1542.775 1940.657, 1548 1940.080 C 1553.225 1939.503, 1559.750 1938.776, 1562.500 1938.465 C 1565.250 1938.154, 1571.325 1937.490, 1576 1936.988 C 1580.675 1936.486, 1586.750 1935.611, 1589.500 1935.042 C 1592.250 1934.474, 1598.325 1933.330, 1603 1932.500 C 1607.675 1931.670, 1613.638 1930.543, 1616.250 1929.995 C 1618.862 1929.448, 1622.912 1928.621, 1625.250 1928.158 C 1627.588 1927.695, 1632.875 1926.335, 1637 1925.137 C 1641.125 1923.939, 1646.300 1922.467, 1648.500 1921.865 C 1650.700 1921.264, 1653.400 1920.411, 1654.500 1919.969 C 1655.600 1919.528, 1657.400 1918.945, 1658.500 1918.674 C 1663.292 1917.493, 1692.544 1906.856, 1693.426 1905.974 C 1693.962 1905.438, 1694.950 1905, 1695.622 1905 C 1696.294 1905, 1699.242 1903.987, 1702.172 1902.750 C 1709.968 1899.458, 1747.824 1880.261, 1751.050 1877.965 C 1752.567 1876.884, 1754.090 1876, 1754.433 1876 C 1755.701 1876, 1774.824 1863.530, 1784.898 1856.134 C 1803.595 1842.406, 1838.286 1812.463, 1845.398 1803.913 C 1846.442 1802.658, 1849.817 1798.889, 1852.898 1795.538 C 1862.908 1784.651, 1871.083 1775.189, 1874.830 1770.154 C 1876.849 1767.442, 1881.237 1761.685, 1884.581 1757.362 C 1900.056 1737.357, 1914.309 1714.095, 1928.307 1686 C 1938.321 1665.901, 1939.958 1662.148, 1946.195 1645 C 1947.295 1641.975, 1948.559 1638.600, 1949.004 1637.500 C 1960.197 1609.848, 1969.569 1568.265, 1973.458 1529 C 1978.747 1475.607, 1969.888 1417.479, 1949.395 1371.115 C 1941.918 1354.199, 1938.958 1348.782, 1927.716 1331.438 C 1918.399 1317.063, 1910.318 1307.213, 1896.552 1293.450 C 1879.443 1276.345, 1862.752 1264.254, 1842.058 1253.973 C 1814.541 1240.302, 1789.643 1234.369, 1761 1234.655 C 1728.146 1234.983, 1701.675 1242.387, 1670.578 1259.945 C 1649.231 1271.997, 1626.126 1293.848, 1613.578 1313.850 C 1602.280 1331.859, 1591.987 1355.480, 1588.546 1371.299 C 1585.541 1385.114, 1584.780 1393.053, 1584.740 1411 C 1584.699 1429.324, 1585.222 1434.815, 1588.518 1450.701 C 1593.536 1474.882, 1607.162 1502.803, 1623.803 1523 C 1643.789 1547.257, 1671.758 1568.167, 1692.732 1574.531 C 1702.694 1577.554, 1725.654 1576.242, 1736.486 1572.031 C 1747.535 1567.735, 1761.795 1554.411, 1766.985 1543.535 C 1771.663 1533.729, 1772.280 1530.991, 1772.730 1518.057 C 1773.071 1508.256, 1772.821 1505.746, 1770.986 1500.557 C 1766.616 1488.194, 1762.746 1481.782, 1755.790 1475.380 C 1751.760 1471.670, 1742.693 1465, 1741.681 1465 C 1740.443 1465, 1726.983 1456.561, 1723.239 1453.437 C 1704.091 1437.462, 1697.640 1409.404, 1708.289 1388.412 C 1711.222 1382.629, 1717.089 1374.617, 1720.915 1371.171 C 1724.573 1367.874, 1733.791 1361, 1734.553 1361 C 1734.904 1361, 1736.471 1360.088, 1738.036 1358.974 C 1741.783 1356.306, 1754.861 1352.767, 1762.936 1352.236 C 1770.092 1351.766, 1779.415 1353.208, 1785.500 1355.726 C 1797.584 1360.728, 1815.708 1376.494, 1827.199 1392 C 1839.347 1408.392, 1849.419 1433.476, 1852.899 1456 C 1855.978 1475.929, 1856.406 1481.236, 1856.406 1499.500 C 1856.406 1518.935, 1855.206 1530.244, 1851.048 1550 C 1850.527 1552.475, 1849.595 1557.200, 1848.977 1560.500 C 1847.918 1566.159, 1846.856 1570.556, 1844.872 1577.500 C 1843.254 1583.163, 1835.780 1605.501, 1834.499 1608.500 C 1828.402 1622.782, 1826.235 1627.481, 1822.741 1634 C 1820.529 1638.125, 1818.396 1641.950, 1818 1642.500 C 1817.604 1643.050, 1815.343 1647.100, 1812.975 1651.500 C 1790.366 1693.516, 1747.219 1739.152, 1702.615 1768.227 C 1692.327 1774.933, 1669.067 1786.875, 1652 1794.214 C 1647.381 1796.200, 1628.028 1802.721, 1620 1804.995 C 1601.991 1810.098, 1585.856 1813.882, 1584.432 1813.336 C 1582.079 1812.433, 1581.923 1809.535, 1583.995 1805.246 C 1585.098 1802.964, 1586 1800.201, 1586 1799.107 C 1586 1798.013, 1586.398 1796.872, 1586.885 1796.571 C 1587.371 1796.271, 1588.019 1794.781, 1588.323 1793.262 C 1588.628 1791.743, 1589.379 1788.475, 1589.993 1786 C 1597.436 1755.996, 1599.255 1738.643, 1599.273 1697.500 C 1599.289 1661.535, 1597.753 1638.626, 1594.108 1620.500 C 1590.141 1600.768, 1588.320 1592.675, 1586.066 1584.750 C 1585.480 1582.688, 1584.595 1579.537, 1584.100 1577.750 C 1581.197 1567.268, 1571.195 1539.046, 1569.852 1537.550 C 1569.384 1537.027, 1569 1536.026, 1569 1535.325 C 1569 1534.624, 1567.650 1531.103, 1566 1527.500 C 1564.350 1523.897, 1563 1520.735, 1563 1520.472 C 1563 1519.059, 1548.468 1489.945, 1543.048 1480.500 C 1535.079 1466.613, 1524.373 1449.325, 1518.799 1441.345 C 1503.500 1419.441, 1498.540 1412.441, 1498.003 1412 C 1497.469 1411.560, 1495.705 1405.212, 1493.002 1394 C 1491.959 1389.675, 1488.754 1377.812, 1486.113 1368.500 C 1474.520 1327.637, 1463.522 1295.780, 1446.757 1254.500 C 1437.100 1230.723, 1432.569 1220.899, 1416.550 1189 C 1405.836 1167.667, 1400.307 1157.642, 1384.563 1131 C 1375.533 1115.719, 1375.538 1115.735, 1378.692 1112.581 C 1380.111 1111.161, 1381.814 1110, 1382.477 1110 C 1383.750 1110, 1415.740 1088.933, 1420 1085.289 C 1421.375 1084.113, 1427.675 1079.012, 1434 1073.953 C 1448.693 1062.201, 1472.734 1038.822, 1484.869 1024.481 C 1491.314 1016.865, 1507.712 994.446, 1513.016 986 C 1538.622 945.225, 1553.433 908.797, 1564.448 859.500 C 1565.923 852.900, 1567.537 845.925, 1568.035 844 C 1569.106 839.861, 1571.432 822.834, 1573.499 804 C 1575.230 788.233, 1575.532 735.266, 1573.999 716.500 C 1571.489 685.783, 1566.142 652.381, 1559.841 628.069 L 1555.807 612.500 1557.402 603 C 1558.280 597.775, 1560.145 587.200, 1561.548 579.500 C 1562.950 571.800, 1564.747 561.225, 1565.540 556 C 1566.333 550.775, 1567.681 542.572, 1568.537 537.771 C 1570.289 527.941, 1571.087 521.639, 1574.015 494.500 C 1577.466 462.523, 1579.631 437.301, 1581.525 407 C 1584.736 355.643, 1584.268 282.953, 1580.480 244.500 C 1577.601 215.284, 1572.340 186.963, 1567.250 173.287 C 1559.852 153.407, 1547.143 145.177, 1528.257 148.035 C 1511.675 150.545, 1504.178 154.741, 1477.500 176.444 C 1444.544 203.254, 1395.297 252.234, 1362.459 290.862 C 1358.081 296.011, 1352.025 303.080, 1349 306.571 C 1330.768 327.613, 1308.792 353.804, 1296.763 368.827 C 1293.348 373.091, 1291.175 374.992, 1290.098 374.656 C 1289.219 374.383, 1285.125 372.730, 1281 370.984 C 1239.067 353.236, 1178.711 340.021, 1107.500 332.998 C 1044.753 326.810, 977.342 328.336, 928.500 337.051 C 879.136 345.859, 835.592 360.895, 806.510 379.176 L 800.521 382.941 794.601 376.221 C 788.815 369.651, 703.566 284.405, 694.887 276.509 C 692.474 274.315, 684.875 267.168, 678 260.628 C 671.125 254.089, 660.100 243.985, 653.500 238.175 C 646.900 232.366, 639.015 225.338, 635.977 222.556 C 632.940 219.775, 623.040 211.207, 613.977 203.516 C 604.915 195.825, 597.012 189.075, 596.415 188.516 C 590.981 183.430, 566.221 164.356, 557.368 158.437 C 542.664 148.606, 526.276 144.603, 510.694 147.036 M 1506.260 188.404 C 1490.559 195.879, 1459.024 228.284, 1410.314 287 C 1394.964 305.504, 1379.752 325.923, 1365.667 346.933 C 1356.283 360.931, 1341.004 388.307, 1341.001 391.128 C 1341 393.144, 1342.738 394.645, 1346.032 395.472 C 1349.325 396.298, 1350.820 394.618, 1360.243 379.500 C 1374.819 356.113, 1394.322 330.015, 1423.389 295 C 1470.432 238.329, 1506.430 203, 1517.128 203 C 1524.693 203, 1532.543 227.553, 1536.469 263.500 C 1542.061 314.699, 1540.614 370.899, 1531.526 455.500 C 1530.167 468.150, 1528.392 486.375, 1527.581 496 C 1523.052 549.769, 1523.046 548.359, 1527.785 547.813 C 1530.424 547.509, 1530.563 547.165, 1532.746 535.500 C 1533.981 528.900, 1536.109 516.300, 1537.474 507.500 C 1538.840 498.700, 1540.420 488.575, 1540.986 485 C 1542.574 474.961, 1547.709 435.669, 1548.892 424.500 C 1556.495 352.718, 1556.709 284.424, 1549.472 239.318 C 1543.787 203.885, 1533.696 187.119, 1517.525 186.238 C 1512.712 185.976, 1510.446 186.411, 1506.260 188.404 M 511.422 194.418 C 502.162 198.451, 496.648 214.718, 492.583 250 C 490.307 269.764, 488.839 303.243, 489.472 321 C 489.776 329.525, 490.474 351.125, 491.024 369 C 492.339 411.736, 493.306 427.282, 498.021 481.500 C 499.022 493.009, 503.419 530.179, 505 540.500 C 510.571 576.858, 513.780 591, 516.459 591 C 519.551 591, 519.861 588.565, 518.943 571.484 C 517.942 552.865, 516.236 530.924, 515.484 527 C 515.221 525.625, 514.107 514.825, 513.010 503 C 511.912 491.175, 510.353 475.200, 509.546 467.500 C 503.102 406.010, 501.046 300.555, 505.492 259.500 C 507.364 242.208, 511.407 221.368, 514.314 214.023 C 517.124 206.924, 519.191 206.573, 527.885 211.720 C 534.858 215.848, 565.840 238.904, 581.597 251.690 C 620.018 282.870, 681.497 341.352, 730.943 393.754 C 745.164 408.825, 747.033 409.967, 751 406 C 754.375 402.625, 753.506 399.068, 747.049 389.813 C 730.446 366.018, 668.108 302.765, 624 264.959 C 616.576 258.597, 582.161 230.919, 574.886 225.461 C 573.449 224.382, 567.796 220.060, 562.325 215.856 C 552.009 207.929, 534.576 196.372, 529.703 194.230 C 526.027 192.614, 515.313 192.724, 511.422 194.418 M 791.500 555.578 C 776.576 557.655, 772.072 558.501, 762.317 561.059 C 708.444 575.185, 664.360 615.937, 647.172 667.500 C 642.179 682.478, 640.259 691.113, 638.390 707 C 636.660 721.711, 637.147 731.764, 640.537 751.276 C 645.807 781.614, 656.753 805.987, 674.929 827.858 C 700.537 858.672, 734.064 878.857, 774 887.504 C 785.854 890.071, 813.060 890.612, 827 888.559 C 880.025 880.749, 924.919 850.360, 949.991 805.306 C 970.282 768.842, 976.406 729.103, 967.991 688.500 C 959.719 648.589, 936.390 612.467, 902.845 587.634 C 888.072 576.697, 864.399 565.777, 844.036 560.507 C 829.244 556.679, 801.973 554.120, 791.500 555.578 M 1322.500 555.999 C 1294.247 558.497, 1267.236 567.696, 1245 582.389 C 1230.489 591.979, 1229.725 592.574, 1220.948 601.147 C 1210.055 611.788, 1205.601 616.801, 1199.315 625.500 C 1194.125 632.683, 1183 652.407, 1183 654.426 C 1183 655.047, 1182.390 656.443, 1181.646 657.527 C 1179.633 660.458, 1174.283 677.232, 1172.085 687.500 C 1165.384 718.812, 1167.745 751.657, 1178.814 781.128 C 1188.740 807.554, 1198.073 822.056, 1218 842.019 C 1239.986 864.045, 1269.646 880.005, 1301.541 886.971 C 1314.013 889.696, 1342.019 890.809, 1356.149 889.143 C 1409.671 882.831, 1458.768 848.516, 1483.265 800.299 C 1508.097 751.425, 1508.290 696.404, 1483.801 647.604 C 1475.178 630.421, 1466.138 618.049, 1451.543 603.461 C 1438.801 590.725, 1426.211 581.822, 1408.500 573.025 C 1380.980 559.356, 1351.201 553.460, 1322.500 555.999 M 778.778 606.653 C 767.605 608.076, 753.532 612.640, 742 618.582 C 733.310 623.059, 718.054 634.578, 714.076 639.666 C 712.857 641.225, 709.382 645.650, 706.354 649.500 C 690.287 669.926, 681.815 700.734, 685.041 726.996 C 691.002 775.520, 727.082 814.245, 774.028 822.506 C 827.937 831.993, 879.080 800.645, 896.103 747.678 C 899.980 735.617, 901.380 723.964, 900.689 709.500 C 898.536 664.437, 868.407 625.326, 825 611.246 C 819.775 609.551, 813.700 607.857, 811.500 607.480 C 802.228 605.895, 787.630 605.525, 778.778 606.653 M 1340.500 607.500 C 1320.876 611.198, 1300.173 621.285, 1286.699 633.712 C 1279.854 640.026, 1269.348 652.794, 1265.165 659.885 C 1255.498 676.273, 1250.598 695.260, 1250.685 716 C 1250.815 746.861, 1261.988 772.438, 1284.838 794.183 C 1301.802 810.327, 1321.058 819.615, 1344.500 822.961 C 1368.705 826.416, 1396.095 820.596, 1416.222 807.721 C 1424.425 802.473, 1439.216 788.827, 1444.985 781.183 C 1451.946 771.960, 1460.429 754.460, 1463.735 742.500 C 1466.274 733.317, 1466.498 731.070, 1466.480 715 C 1466.461 698.007, 1466.362 697.168, 1463.042 686.048 C 1455.504 660.801, 1441.407 640.668, 1420.828 625.760 C 1408.265 616.660, 1389.959 609.144, 1375.133 606.999 C 1365.959 605.672, 1348.889 605.919, 1340.500 607.500" stroke="none" fill="black" fill-rule="evenodd"/>
</svg>